<svg width="39" height="39" viewBox="0 0 39 39" fill="none" xmlns="http://www.w3.org/2000/svg">
<path d="M21.7612 34.5201L18.0239 30.7829M19.5614 9.67305L8.96619 9.67323V20.2683L19.5614 9.67305ZM10.7321 2.59956V0.5V2.59956ZM7.20032 4.01226V0.500172V4.01226ZM17.7956 2.59956V0.5V2.59956ZM14.2638 4.01226V0.500172V4.01226ZM24.859 2.59956V0.5V2.59956ZM21.3273 4.01226V0.500172V4.01226ZM28.3908 4.01226V0.500172V4.01226ZM2.59939 10.7324H0.5H2.59939ZM4.01209 7.20066H0.5H4.01209ZM2.59939 17.7961H0.5H2.59939ZM4.01209 14.2643H0.5H4.01209ZM2.59939 24.8596H0.5H2.59939ZM4.01209 21.3278H0.5H4.01209ZM4.01209 28.3913H0.5H4.01209ZM25.8965 30.4001L21.7688 34.5278L14.2638 38.2804L18.0163 30.7752L34.5272 14.2643L38.2797 18.0167L30.0242 26.2723L25.8965 30.4001Z" stroke="#586597" stroke-linecap="round" stroke-linejoin="round"/>
</svg>
